MutatorSansInstance_0-200.ufo
<glyph name="comma" format="2">
  <advance width="195"/>
  <unicode hex="002C"/>
  <outline>
    <contour>
      <point x="123" y="0" type="line"/>
      <point x="123" y="140" type="line"/>
      <point x="73" y="140" type="line"/>
      <point x="73" y="0" type="line"/>
      <point x="105" y="-8" type="line"/>
      <point x="94" y="12" type="line"/>
      <point x="72" y="-93" type="line"/>
      <point x="84" y="-95" type="line"/>
    </contour>
  </outline>
</glyph>
<glyph name="A" format="2">
  <advance width="560"/>
  <unicode hex="0041"/>
  <outline>
    <contour>
      <point x="28" y="0" type="line"/>
      <point x="69" y="0" type="line"/>
      <point x="276" y="700" type="line"/>
      <point x="240" y="700" type="line"/>
    </contour>
    <contour>
      <point x="111" y="176" type="line"/>
      <point x="451" y="176" type="line"/>
      <point x="451" y="211" type="line"/>
      <point x="111" y="211" type="line"/>
    </contour>
    <contour>
      <point x="485" y="0" type="line"/>
      <point x="531" y="0" type="line"/>
      <point x="319" y="700" type="line"/>
      <point x="278" y="700" type="line"/>
    </contour>
    <contour>
      <point x="248" y="662" type="line"/>
      <point x="314" y="662" type="line"/>
      <point x="314" y="700" type="line"/>
      <point x="248" y="700" type="line"/>
    </contour>
  </outline>
</glyph>
<glyph name="B" format="2">
  <advance width="589"/>
  <unicode hex="0042"/>
  <outline>
    <contour>
      <point x="72" y="0" type="line"/>
      <point x="112" y="0" type="line"/>
      <point x="112" y="700" type="line"/>
      <point x="72" y="700" type="line"/>
    </contour>
    <contour>
      <point x="92" y="333" type="line"/>
      <point x="344" y="333" type="line" smooth="yes"/>
      <point x="452" y="333"/>
      <point x="502" y="269"/>
      <point x="502" y="183" type="curve" smooth="yes"/>
      <point x="502" y="94"/>
      <point x="449" y="36"/>
      <point x="336" y="36" type="curve" smooth="yes"/>
      <point x="92" y="36" type="line"/>
      <point x="92" y="0" type="line"/>
      <point x="326" y="0" type="line" smooth="yes"/>
      <point x="480" y="0"/>
      <point x="541" y="80"/>
      <point x="541" y="183" type="curve" smooth="yes"/>
      <point x="541" y="273"/>
      <point x="491" y="350"/>
      <point x="370" y="361" type="curve"/>
      <point x="382" y="349" type="line"/>
      <point x="472" y="367"/>
      <point x="513" y="439"/>
      <point x="513" y="517" type="curve" smooth="yes"/>
      <point x="513" y="618"/>
      <point x="467" y="700"/>
      <point x="306" y="700" type="curve" smooth="yes"/>
      <point x="92" y="700" type="line"/>
      <point x="92" y="664" type="line"/>
      <point x="316" y="664" type="line" smooth="yes"/>
      <point x="436" y="664"/>
      <point x="474" y="603"/>
      <point x="474" y="517" type="curve" smooth="yes"/>
      <point x="474" y="431"/>
      <point x="424" y="368"/>
      <point x="316" y="368" type="curve" smooth="yes"/>
      <point x="92" y="368" type="line"/>
    </contour>
  </outline>
</glyph>
<glyph name="C" format="2">
  <advance width="660"/>
  <unicode hex="0043"/>
  <outline>
    <contour>
      <point x="565" y="267" type="line"/>
      <point x="546" y="88"/>
      <point x="463" y="26"/>
      <point x="342" y="26" type="curve" smooth="yes"/>
      <point x="323" y="26" type="line" smooth="yes"/>
      <point x="185" y="26"/>
      <point x="96" y="108"/>
      <point x="96" y="352" type="curve" smooth="yes"/>
      <point x="96" y="595"/>
      <point x="185" y="674"/>
      <point x="323" y="674" type="curve" smooth="yes"/>
      <point x="342" y="674" type="line" smooth="yes"/>
      <point x="462" y="674"/>
      <point x="545" y="615"/>
      <point x="564" y="440" type="curve"/>
      <point x="604" y="445" type="line"/>
      <point x="581" y="635"/>
      <point x="484" y="710"/>
      <point x="342" y="710" type="curve" smooth="yes"/>
      <point x="323" y="710" type="line" smooth="yes"/>
      <point x="158" y="710"/>
      <point x="56" y="611"/>
      <point x="56" y="352" type="curve" smooth="yes"/>
      <point x="56" y="92"/>
      <point x="158" y="-10"/>
      <point x="323" y="-10" type="curve" smooth="yes"/>
      <point x="342" y="-10" type="line" smooth="yes"/>
      <point x="485" y="-10"/>
      <point x="582" y="68"/>
      <point x="604" y="261" type="curve"/>
    </contour>
  </outline>
</glyph>
<glyph name="D" format="2">
  <advance width="603"/>
  <unicode hex="0044"/>
  <outline>
    <contour>
      <point x="72" y="0" type="line"/>
      <point x="112" y="0" type="line"/>
      <point x="112" y="700" type="line"/>
      <point x="72" y="700" type="line"/>
    </contour>
    <contour>
      <point x="97" y="664" type="line"/>
      <point x="248" y="664" type="line" smooth="yes"/>
      <point x="401" y="664"/>
      <point x="507" y="595"/>
      <point x="507" y="352" type="curve" smooth="yes"/>
      <point x="507" y="108"/>
      <point x="401" y="36"/>
      <point x="248" y="36" type="curve" smooth="yes"/>
      <point x="97" y="36" type="line"/>
      <point x="97" y="0" type="line"/>
      <point x="248" y="0" type="line" smooth="yes"/>
      <point x="426" y="0"/>
      <point x="547" y="92"/>
      <point x="547" y="352" type="curve" smooth="yes"/>
      <point x="547" y="611"/>
      <point x="426" y="700"/>
      <point x="248" y="700" type="curve" smooth="yes"/>
      <point x="97" y="700" type="line"/>
    </contour>
  </outline>
</glyph>
<glyph name="E" format="2">
  <advance width="524"/>
  <unicode hex="0045"/>
  <anchor x="272" y="746" name="top"/>
  <outline>
    <contour>
      <point x="72" y="0" type="line"/>
      <point x="112" y="0" type="line"/>
      <point x="112" y="700" type="line"/>
      <point x="72" y="700" type="line"/>
    </contour>
    <contour>
      <point x="92" y="664" type="line"/>
      <point x="468" y="664" type="line"/>
      <point x="468" y="700" type="line"/>
      <point x="92" y="700" type="line"/>
    </contour>
    <contour>
      <point x="92" y="0" type="line"/>
      <point x="468" y="0" type="line"/>
      <point x="468" y="36" type="line"/>
      <point x="92" y="36" type="line"/>
    </contour>
    <contour>
      <point x="92" y="334" type="line"/>
      <point x="428" y="334" type="line"/>
      <point x="428" y="370" type="line"/>
      <point x="92" y="370" type="line"/>
    </contour>
  </outline>
</glyph>
<glyph name="F" format="2">
  <advance width="550"/>
  <unicode hex="0046"/>
  <outline>
    <contour>
      <point x="72" y="0" type="line"/>
      <point x="112" y="0" type="line"/>
      <point x="112" y="700" type="line"/>
      <point x="72" y="700" type="line"/>
    </contour>
    <contour>
      <point x="92" y="664" type="line"/>
      <point x="478" y="664" type="line"/>
      <point x="478" y="700" type="line"/>
      <point x="92" y="700" type="line"/>
    </contour>
    <contour>
      <point x="92" y="310" type="line"/>
      <point x="458" y="310" type="line"/>
      <point x="458" y="346" type="line"/>
      <point x="92" y="346" type="line"/>
    </contour>
  </outline>
</glyph>
<glyph name="G" format="2">
  <advance width="682"/>
  <unicode hex="0047"/>
  <outline>
    <contour>
      <point x="294" y="300" type="line"/>
      <point x="573" y="300" type="line"/>
      <point x="573" y="216" type="line"/>
      <point x="584" y="0" type="line"/>
      <point x="610" y="0" type="line"/>
      <point x="610" y="334" type="line"/>
      <point x="294" y="334" type="line"/>
    </contour>
    <contour>
      <point x="575" y="283" type="line"/>
      <point x="556" y="88"/>
      <point x="473" y="26"/>
      <point x="352" y="26" type="curve" smooth="yes"/>
      <point x="323" y="26" type="line" smooth="yes"/>
      <point x="185" y="26"/>
      <point x="96" y="108"/>
      <point x="96" y="352" type="curve" smooth="yes"/>
      <point x="96" y="595"/>
      <point x="192" y="674"/>
      <point x="330" y="674" type="curve" smooth="yes"/>
      <point x="359" y="674" type="line" smooth="yes"/>
      <point x="479" y="674"/>
      <point x="555" y="615"/>
      <point x="574" y="440" type="curve"/>
      <point x="614" y="445" type="line"/>
      <point x="591" y="635"/>
      <point x="501" y="710"/>
      <point x="359" y="710" type="curve" smooth="yes"/>
      <point x="330" y="710" type="line" smooth="yes"/>
      <point x="166" y="710"/>
      <point x="56" y="611"/>
      <point x="56" y="352" type="curve" smooth="yes"/>
      <point x="56" y="92"/>
      <point x="158" y="-10"/>
      <point x="323" y="-10" type="curve" smooth="yes"/>
      <point x="352" y="-10" type="line" smooth="yes"/>
      <point x="495" y="-10"/>
      <point x="580" y="68"/>
      <point x="593" y="277" type="curve"/>
    </contour>
  </outline>
</glyph>
<glyph name="H" format="2">
  <advance width="596"/>
  <unicode hex="0048"/>
  <outline>
    <contour>
      <point x="72" y="0" type="line"/>
      <point x="112" y="0" type="line"/>
      <point x="112" y="700" type="line"/>
      <point x="72" y="700" type="line"/>
    </contour>
    <contour>
      <point x="93" y="334" type="line"/>
      <point x="505" y="334" type="line"/>
      <point x="505" y="370" type="line"/>
      <point x="93" y="370" type="line"/>
    </contour>
    <contour>
      <point x="484" y="0" type="line"/>
      <point x="524" y="0" type="line"/>
      <point x="524" y="700" type="line"/>
      <point x="484" y="700" type="line"/>
    </contour>
  </outline>
</glyph>
<glyph name="I" format="2">
  <advance width="442"/>
  <unicode hex="0049"/>
  <outline>
    <contour>
      <point x="202" y="0" type="line"/>
      <point x="242" y="0" type="line"/>
      <point x="242" y="700" type="line"/>
      <point x="202" y="700" type="line"/>
    </contour>
    <contour>
      <point x="72" y="664" type="line"/>
      <point x="370" y="664" type="line"/>
      <point x="370" y="700" type="line"/>
      <point x="72" y="700" type="line"/>
    </contour>
    <contour>
      <point x="72" y="0" type="line"/>
      <point x="370" y="0" type="line"/>
      <point x="370" y="36" type="line"/>
      <point x="72" y="36" type="line"/>
    </contour>
  </outline>
</glyph>
<glyph name="J" format="2">
  <advance width="482"/>
  <unicode hex="004A"/>
  <outline>
    <contour>
      <point x="155" y="-10" type="curve" smooth="yes"/>
      <point x="312" y="-10"/>
      <point x="410" y="60"/>
      <point x="410" y="248" type="curve" smooth="yes"/>
      <point x="410" y="700" type="line"/>
      <point x="370" y="700" type="line"/>
      <point x="370" y="248" type="line" smooth="yes"/>
      <point x="370" y="79"/>
      <point x="287" y="26"/>
      <point x="155" y="26" type="curve" smooth="yes"/>
      <point x="129" y="26"/>
      <point x="105" y="29"/>
      <point x="84" y="34" type="curve"/>
      <point x="72" y="-1" type="line"/>
      <point x="97" y="-7"/>
      <point x="125" y="-10"/>
    </contour>
  </outline>
</glyph>
<glyph name="K" format="2">
  <advance width="545"/>
  <unicode hex="004B"/>
  <outline>
    <contour>
      <point x="72" y="0" type="line"/>
      <point x="112" y="0" type="line"/>
      <point x="112" y="700" type="line"/>
      <point x="72" y="700" type="line"/>
    </contour>
    <contour>
      <point x="86" y="326" type="line"/>
      <point x="161" y="326" type="line"/>
      <point x="457" y="0" type="line"/>
      <point x="513" y="0" type="line"/>
      <point x="177" y="361" type="line"/>
      <point x="171" y="362" type="line"/>
      <point x="86" y="362" type="line"/>
    </contour>
    <contour>
      <point x="140" y="345" type="line"/>
      <point x="170" y="331" type="line"/>
      <point x="507" y="700" type="line"/>
      <point x="457" y="700" type="line"/>
    </contour>
  </outline>
</glyph>
<glyph name="L" format="2">
  <advance width="490"/>
  <unicode hex="004C"/>
  <outline>
    <contour>
      <point x="72" y="0" type="line"/>
      <point x="112" y="0" type="line"/>
      <point x="112" y="700" type="line"/>
      <point x="72" y="700" type="line"/>
    </contour>
    <contour>
      <point x="92" y="0" type="line"/>
      <point x="458" y="0" type="line"/>
      <point x="458" y="36" type="line"/>
      <point x="92" y="36" type="line"/>
    </contour>
  </outline>
</glyph>
<glyph name="M" format="2">
  <advance width="647"/>
  <unicode hex="004D"/>
  <outline>
    <contour>
      <point x="72" y="0" type="line"/>
      <point x="112" y="0" type="line"/>
      <point x="112" y="700" type="line"/>
      <point x="72" y="700" type="line"/>
    </contour>
    <contour>
      <point x="575" y="0" type="line"/>
      <point x="575" y="700" type="line"/>
      <point x="535" y="700" type="line"/>
      <point x="535" y="0" type="line"/>
    </contour>
    <contour>
      <point x="557" y="654" type="line"/>
      <point x="535" y="700" type="line"/>
      <point x="309" y="326" type="line"/>
      <point x="338" y="326" type="line"/>
      <point x="112" y="700" type="line"/>
      <point x="91" y="654" type="line"/>
      <point x="311" y="287" type="line"/>
      <point x="337" y="287" type="line"/>
    </contour>
  </outline>
</glyph>
<glyph name="N" format="2">
  <advance width="604"/>
  <unicode hex="004E"/>
  <outline>
    <contour>
      <point x="72" y="0" type="line"/>
      <point x="108" y="0" type="line"/>
      <point x="108" y="700" type="line"/>
      <point x="72" y="700" type="line"/>
    </contour>
    <contour>
      <point x="89" y="650" type="line"/>
      <point x="496" y="0" type="line"/>
      <point x="515" y="51" type="line"/>
      <point x="108" y="700" type="line"/>
    </contour>
    <contour>
      <point x="496" y="0" type="line"/>
      <point x="532" y="0" type="line"/>
      <point x="532" y="700" type="line"/>
      <point x="496" y="700" type="line"/>
    </contour>
  </outline>
</glyph>
<glyph name="O" format="2">
  <advance width="667"/>
  <unicode hex="004F"/>
  <outline>
    <contour>
      <point x="323" y="-10" type="curve" smooth="yes"/>
      <point x="344" y="-10" type="line" smooth="yes"/>
      <point x="507" y="-10"/>
      <point x="611" y="92"/>
      <point x="611" y="352" type="curve" smooth="yes"/>
      <point x="611" y="611"/>
      <point x="507" y="710"/>
      <point x="344" y="710" type="curve" smooth="yes"/>
      <point x="323" y="710" type="line" smooth="yes"/>
      <point x="158" y="710"/>
      <point x="56" y="611"/>
      <point x="56" y="352" type="curve" smooth="yes"/>
      <point x="56" y="92"/>
      <point x="158" y="-10"/>
    </contour>
    <contour>
      <point x="323" y="26" type="line" smooth="yes"/>
      <point x="185" y="26"/>
      <point x="96" y="108"/>
      <point x="96" y="352" type="curve" smooth="yes"/>
      <point x="96" y="595"/>
      <point x="185" y="674"/>
      <point x="323" y="674" type="curve" smooth="yes"/>
      <point x="344" y="674" type="line" smooth="yes"/>
      <point x="482" y="674"/>
      <point x="571" y="595"/>
      <point x="571" y="352" type="curve" smooth="yes"/>
      <point x="571" y="108"/>
      <point x="482" y="26"/>
      <point x="344" y="26" type="curve" smooth="yes"/>
    </contour>
  </outline>
</glyph>
<glyph name="P" format="2">
  <advance width="535"/>
  <unicode hex="0050"/>
  <outline>
    <contour>
      <point x="72" y="0" type="line"/>
      <point x="112" y="0" type="line"/>
      <point x="112" y="700" type="line"/>
      <point x="72" y="700" type="line"/>
    </contour>
    <contour>
      <point x="92" y="660" type="line"/>
      <point x="246" y="660" type="line" smooth="yes"/>
      <point x="402" y="660"/>
      <point x="464" y="567"/>
      <point x="464" y="432" type="curve" smooth="yes"/>
      <point x="464" y="297"/>
      <point x="402" y="205"/>
      <point x="246" y="205" type="curve" smooth="yes"/>
      <point x="92" y="205" type="line"/>
      <point x="92" y="165" type="line"/>
      <point x="236" y="165" type="line" smooth="yes"/>
      <point x="439" y="165"/>
      <point x="503" y="286"/>
      <point x="503" y="432" type="curve" smooth="yes"/>
      <point x="503" y="580"/>
      <point x="439" y="700"/>
      <point x="236" y="700" type="curve" smooth="yes"/>
      <point x="92" y="700" type="line"/>
    </contour>
  </outline>
</glyph>
<glyph name="Q" format="2">
  <advance width="667"/>
  <unicode hex="0051"/>
  <outline>
    <contour>
      <point x="406" y="-130" type="line"/>
      <point x="450" y="-130" type="line"/>
      <point x="351" y="13" type="line"/>
      <point x="319" y="-5" type="line"/>
    </contour>
    <component base="O"/>
  </outline>
</glyph>
<glyph name="R" format="2">
  <advance width="555"/>
  <unicode hex="0052"/>
  <outline>
    <contour>
      <point x="460" y="0" type="line"/>
      <point x="509" y="0" type="line"/>
      <point x="407" y="125" type="line" smooth="yes"/>
      <point x="363" y="175"/>
      <point x="343" y="193"/>
      <point x="318" y="193" type="curve"/>
      <point x="299" y="193" type="line"/>
    </contour>
    <contour>
      <point x="72" y="0" type="line"/>
      <point x="112" y="0" type="line"/>
      <point x="112" y="700" type="line"/>
      <point x="72" y="700" type="line"/>
    </contour>
    <contour>
      <point x="92" y="660" type="line"/>
      <point x="248" y="660" type="line" smooth="yes"/>
      <point x="402" y="660"/>
      <point x="463" y="567"/>
      <point x="463" y="432" type="curve" smooth="yes"/>
      <point x="463" y="297"/>
      <point x="402" y="205"/>
      <point x="248" y="205" type="curve" smooth="yes"/>
      <point x="92" y="205" type="line"/>
      <point x="92" y="165" type="line"/>
      <point x="236" y="165" type="line" smooth="yes"/>
      <point x="439" y="165"/>
      <point x="503" y="286"/>
      <point x="503" y="432" type="curve" smooth="yes"/>
      <point x="503" y="580"/>
      <point x="439" y="700"/>
      <point x="236" y="700" type="curve" smooth="yes"/>
      <point x="92" y="700" type="line"/>
    </contour>
  </outline>
</glyph>
<glyph name="S" format="2">
  <advance width="551"/>
  <unicode hex="0053"/>
  <outline>
    <contour>
      <point x="494" y="164" type="curve" smooth="yes"/>
      <point x="493" y="254"/>
      <point x="438" y="307"/>
      <point x="314" y="361" type="curve" smooth="yes"/>
      <point x="239" y="394" type="line" smooth="yes"/>
      <point x="148" y="435"/>
      <point x="103" y="478"/>
      <point x="103" y="549" type="curve" smooth="yes"/>
      <point x="103" y="618"/>
      <point x="161" y="673"/>
      <point x="281" y="673" type="curve" smooth="yes"/>
      <point x="293" y="673" type="line" smooth="yes"/>
      <point x="375" y="673"/>
      <point x="434" y="657"/>
      <point x="486" y="627" type="curve"/>
      <point x="504" y="663" type="line"/>
      <point x="452" y="690"/>
      <point x="391" y="710"/>
      <point x="301" y="710" type="curve" smooth="yes"/>
      <point x="290" y="710" type="line" smooth="yes"/>
      <point x="138" y="710"/>
      <point x="64" y="640"/>
      <point x="65" y="539" type="curve" smooth="yes"/>
      <point x="66" y="451"/>
      <point x="118" y="395"/>
      <point x="240" y="341" type="curve" smooth="yes"/>
      <point x="315" y="308" type="line" smooth="yes"/>
      <point x="418" y="261"/>
      <point x="456" y="228"/>
      <point x="456" y="155" type="curve" smooth="yes"/>
      <point x="456" y="83"/>
      <point x="396" y="28"/>
      <point x="264" y="28" type="curve" smooth="yes"/>
      <point x="252" y="28" type="line" smooth="yes"/>
      <point x="174" y="28"/>
      <point x="112" y="44"/>
      <point x="56" y="76" type="curve"/>
      <point x="39" y="40" type="line"/>
      <point x="94" y="12"/>
      <point x="158" y="-10"/>
      <point x="244" y="-10" type="curve" smooth="yes"/>
      <point x="256" y="-10" type="line" smooth="yes"/>
      <point x="419" y="-10"/>
      <point x="495" y="62"/>
    </contour>
  </outline>
</glyph>
<glyph name="T" format="2">
  <advance width="580"/>
  <unicode hex="0054"/>
  <outline>
    <contour>
      <point x="270" y="0" type="line"/>
      <point x="310" y="0" type="line"/>
      <point x="310" y="700" type="line"/>
      <point x="270" y="700" type="line"/>
    </contour>
    <contour>
      <point x="32" y="664" type="line"/>
      <point x="548" y="664" type="line"/>
      <point x="548" y="700" type="line"/>
      <point x="32" y="700" type="line"/>
    </contour>
  </outline>
</glyph>
<glyph name="U" format="2">
  <advance width="607"/>
  <unicode hex="0055"/>
  <outline>
    <contour>
      <point x="304" y="-10" type="curve" smooth="yes"/>
      <point x="446" y="-10"/>
      <point x="535" y="52"/>
      <point x="535" y="216" type="curve" smooth="yes"/>
      <point x="535" y="700" type="line"/>
      <point x="495" y="700" type="line"/>
      <point x="495" y="216" type="line" smooth="yes"/>
      <point x="495" y="73"/>
      <point x="421" y="26"/>
      <point x="304" y="26" type="curve" smooth="yes"/>
      <point x="186" y="26"/>
      <point x="112" y="73"/>
      <point x="112" y="216" type="curve" smooth="yes"/>
      <point x="112" y="700" type="line"/>
      <point x="72" y="700" type="line"/>
      <point x="72" y="216" type="line" smooth="yes"/>
      <point x="72" y="52"/>
      <point x="159" y="-10"/>
    </contour>
  </outline>
</glyph>
<glyph name="V" format="2">
  <advance width="554"/>
  <unicode hex="0056"/>
  <outline>
    <contour>
      <point x="528" y="700" type="line"/>
      <point x="486" y="700" type="line"/>
      <point x="282" y="0" type="line"/>
      <point x="320" y="0" type="line"/>
    </contour>
    <contour>
      <point x="72" y="700" type="line"/>
      <point x="24" y="700" type="line"/>
      <point x="234" y="0" type="line"/>
      <point x="277" y="0" type="line"/>
    </contour>
    <contour>
      <point x="312" y="38" type="line"/>
      <point x="244" y="38" type="line"/>
      <point x="244" y="0" type="line"/>
      <point x="312" y="0" type="line"/>
    </contour>
  </outline>
</glyph>
<glyph name="W" format="2">
  <advance width="690"/>
  <unicode hex="0057"/>
  <outline>
    <contour>
      <point x="665" y="700" type="line"/>
      <point x="623" y="700" type="line"/>
      <point x="494" y="62" type="line"/>
      <point x="501" y="62" type="line"/>
      <point x="365" y="700" type="line"/>
      <point x="329" y="700" type="line"/>
      <point x="197" y="60" type="line"/>
      <point x="207" y="60" type="line"/>
      <point x="70" y="700" type="line"/>
      <point x="26" y="700" type="line"/>
      <point x="178" y="0" type="line"/>
      <point x="217" y="0" type="line"/>
      <point x="346" y="642" type="line"/>
      <point x="336" y="642" type="line"/>
      <point x="475" y="0" type="line"/>
      <point x="514" y="0" type="line"/>
    </contour>
  </outline>
</glyph>
<glyph name="X" format="2">
  <advance width="524"/>
  <unicode hex="0058"/>
  <outline>
    <contour>
      <point x="454" y="0" type="line"/>
      <point x="502" y="0" type="line"/>
      <point x="274" y="365" type="line"/>
      <point x="80" y="700" type="line"/>
      <point x="32" y="700" type="line"/>
      <point x="249" y="340" type="line"/>
    </contour>
    <contour>
      <point x="24" y="0" type="line"/>
      <point x="66" y="0" type="line"/>
      <point x="264" y="336" type="line"/>
      <point x="277" y="339" type="line"/>
      <point x="490" y="700" type="line"/>
      <point x="448" y="700" type="line"/>
      <point x="261" y="364" type="line"/>
      <point x="245" y="360" type="line"/>
    </contour>
  </outline>
</glyph>
<glyph name="Y" format="2">
  <advance width="534"/>
  <unicode hex="0059"/>
  <outline>
    <contour>
      <point x="512" y="700" type="line"/>
      <point x="469" y="700" type="line"/>
      <point x="263" y="208" type="line"/>
      <point x="285" y="202" type="line"/>
    </contour>
    <contour>
      <point x="70" y="700" type="line"/>
      <point x="22" y="700" type="line"/>
      <point x="248" y="202" type="line"/>
      <point x="283" y="208" type="line"/>
    </contour>
    <contour>
      <point x="287" y="245" type="line"/>
      <point x="247" y="245" type="line"/>
      <point x="247" y="0" type="line"/>
      <point x="287" y="0" type="line"/>
    </contour>
  </outline>
</glyph>
<glyph name="Z" format="2">
  <advance width="592"/>
  <unicode hex="005A"/>
  <outline>
    <contour>
      <point x="72" y="36" type="line"/>
      <point x="107" y="24" type="line"/>
      <point x="520" y="664" type="line"/>
      <point x="485" y="676" type="line"/>
    </contour>
    <contour>
      <point x="72" y="664" type="line"/>
      <point x="520" y="664" type="line"/>
      <point x="520" y="700" type="line"/>
      <point x="72" y="700" type="line"/>
    </contour>
    <contour>
      <point x="72" y="0" type="line"/>
      <point x="520" y="0" type="line"/>
      <point x="520" y="36" type="line"/>
      <point x="72" y="36" type="line"/>
    </contour>
  </outline>
</glyph>
